Patient4_TMGait_0pt5_02_right_27_GRF.mot
version=1
nRows=45
nColumns=19
inDegrees=no
endheader
time	F1x	F1y	F1z	M1x	M1y	M1z	F2x	F2y	F2z	M2x	M2y	M2z	EC1x	EC1y	EC1z	EC2x	EC2y	EC2z
35.18	-5.9331	748.43	51.702	-263.7032	-46.2747	671.5163	0.54697	-0.36938	5.8712	-1.3957	-5.7195	-0.076388	-0.0592	0.0182	-0.0073	-0.0462	0.0165	0.9585
35.1935	-7.4772	741.4604	52.6713	-260.8598	-47.4015	662.1696	0.2475	0.66468	4.0412	-0.59796	-3.8599	0.86263	-0.0592	0.0182	-0.0073	-0.0462	0.0165	0.9585
35.207	-8.3383	735.2017	53.4315	-258.1874	-48.054	653.1601	-0.0009171	1.565	2.4551	0.098947	-2.2654	1.6731	-0.0592	0.0182	-0.0073	-0.0462	0.0165	0.9585
35.2205	-8.4665	730.619	54.0039	-256.0647	-48.2326	645.4232	-0.18695	2.2903	1.2253	0.65192	-1.0391	2.3194	-0.0592	0.0182	-0.0073	-0.0462	0.0165	0.9585
35.234	-7.9273	728.3641	54.4471	-254.7653	-48.0159	639.5462	-0.32523	2.8438	0.36073	1.0575	-0.17872	2.8123	-0.0592	0.0182	-0.0073	-0.0462	0.0165	0.9585
35.2475	-6.809	728.6765	54.794	-254.4165	-47.4724	635.6982	-0.42895	3.2263	-0.18356	1.3272	0.36658	3.1508	-0.0592	0.0182	-0.0073	-0.0462	0.0165	0.9585
35.261	-5.2027	731.3987	55.0736	-254.996	-46.6723	633.7034	-0.51749	3.4399	-0.48591	1.478	0.68056	3.3434	-0.0592	0.0182	-0.0073	-0.0462	0.0165	0.9585
35.2745	-3.1692	736.058	55.2785	-256.3579	-45.6424	633.1139	-0.60165	3.4697	-0.61875	1.5196	0.83842	3.3729	-0.0592	0.0182	-0.0073	-0.0462	0.0165	0.9585
35.288	-0.76805	741.9768	55.4167	-258.2677	-44.4205	633.3233	-0.68912	3.2709	-0.65213	1.448	0.90757	3.1881	-0.0592	0.0182	-0.0073	-0.0462	0.0165	0.9585
35.3015	1.9597	748.3749	55.4682	-260.4445	-43.0113	633.6626	-0.78669	2.7836	-0.63814	1.2476	0.93611	2.724	-0.0592	0.0182	-0.0073	-0.0462	0.0165	0.9585
35.315	4.982	754.467	55.4359	-262.5952	-41.4356	633.4915	-0.8849	1.9259	-0.6158	0.89099	0.95253	1.8821	-0.0592	0.0182	-0.0073	-0.0462	0.0165	0.9585
35.3285	8.2762	759.5634	55.298	-264.4558	-39.6853	632.2783	-0.97084	0.6143	-0.60029	0.34784	0.96314	0.5755	-0.0592	0.0182	-0.0073	-0.0462	0.0165	0.9585
35.342	11.8146	763.1369	55.0551	-265.8171	-37.7674	629.6596	-1.0011	-1.2121	-0.59399	-0.40421	0.95692	-1.2501	-0.0592	0.0182	-0.0073	-0.0462	0.0165	0.9585
35.3555	15.5484	764.8583	54.7114	-266.5433	-35.6965	625.4729	-0.91803	-3.5329	-0.58131	-1.3559	0.89792	-3.5656	-0.0592	0.0182	-0.0073	-0.0462	0.0165	0.9585
35.369	19.435	764.5647	54.3085	-266.5582	-33.5216	619.705	-0.64254	-6.1836	-0.54457	-2.4394	0.73692	-6.2062	-0.0592	0.0182	-0.0073	-0.0462	0.0165	0.9585
35.3825	23.4192	762.1883	53.9042	-265.8172	-31.3132	612.4228	-0.076154	-8.7706	-0.44562	-3.4944	0.39919	-8.7868	-0.0592	0.0182	-0.0073	-0.0462	0.0165	0.9585
35.396	27.4396	757.7245	53.5774	-264.2975	-29.1651	603.7255	0.88172	-10.5754	-0.24831	-4.2276	-0.1924	-10.5996	-0.0592	0.0182	-0.0073	-0.0462	0.0165	0.9585
35.4095	31.4269	751.2796	53.3953	-262.0196	-27.1636	593.7836	2.3292	-10.4715	0.094503	-4.1757	-1.1211	-10.5387	-0.0592	0.0182	-0.0073	-0.0462	0.0165	0.9585
35.423	35.3018	743.098	53.3881	-259.0566	-25.3715	582.8639	4.3123	-6.8547	0.61721	-2.679	-2.4341	-7.0181	-0.0592	0.0182	-0.0073	-0.0462	0.0165	0.9585
35.4365	38.9795	733.4273	53.5301	-255.4884	-23.8112	571.2231	6.7846	2.3326	1.3404	1.1101	-4.1221	1.9889	-0.0592	0.0182	-0.0073	-0.0462	0.0165	0.9585
35.45	42.3452	722.318	53.7253	-251.3348	-22.4641	558.9705	9.5186	19.4581	2.2403	8.1648	-6.0535	18.818	-0.0592	0.0182	-0.0073	-0.0462	0.0165	0.9585
35.4635	45.2532	709.4833	53.8097	-246.5029	-21.2698	545.9544	12.0164	46.8541	3.2365	19.4408	-7.9271	45.7849	-0.0592	0.0182	-0.0073	-0.0462	0.0165	0.9585
35.477	47.5422	694.2968	53.5672	-240.7842	-20.1348	531.7623	13.4291	86.1713	4.1417	35.6124	-9.2002	84.5477	-0.0592	0.0182	-0.0073	-0.0462	0.0165	0.9585
35.4905	49.0305	675.9242	52.7597	-233.901	-18.9534	515.823	12.5788	137.4762	4.6774	56.7006	-9.1179	135.2167	-0.0592	0.0182	-0.0073	-0.0462	0.0165	0.9585
35.504	49.5607	653.566	51.166	-225.5959	-17.6185	497.5659	8.2972	198.137	4.5238	81.6139	-6.8979	195.2252	-0.0592	0.0182	-0.0073	-0.0462	0.0165	0.9585
35.5175	49.0732	626.7482	48.6376	-215.7361	-16.0352	476.6126	0.54157	262.142	3.234	107.8563	-2.1092	258.6497	-0.0592	0.0182	-0.0073	-0.0462	0.0165	0.9585
35.531	47.7022	595.5799	45.1692	-204.4038	-14.1423	452.9156	-8.6958	321.4846	0.35635	132.1066	4.8423	317.4794	-0.0592	0.0182	-0.0073	-0.0462	0.0165	0.9585
35.5445	45.7681	560.8425	40.9588	-191.9126	-11.9553	426.852	-17.2365	369.7518	-3.643	151.734	12.5446	365.1558	-0.0592	0.0182	-0.0073	-0.0462	0.0165	0.9585
35.558	43.6383	523.503	36.4078	-178.6251	-9.6125	398.9273	-23.7319	404.2468	-8.1212	165.6433	19.7868	398.8854	-0.0592	0.0182	-0.0073	-0.0462	0.0165	0.9585
35.5715	41.5477	484.2231	31.9573	-164.7755	-7.3272	369.4831	-27.7881	425.6509	-12.2522	174.1469	25.5856	419.3811	-0.0592	0.0182	-0.0073	-0.0462	0.0165	0.9585
35.585	39.5779	443.4296	27.9053	-150.5004	-5.2652	338.7661	-29.7414	437.0269	-15.591	178.5267	29.6493	429.776	-0.0592	0.0182	-0.0073	-0.0462	0.0165	0.9585
35.5985	37.6543	401.5179	24.3391	-135.9237	-3.5034	307.0599	-30.225	442.8789	-17.8742	180.6458	32.0038	434.5564	-0.0592	0.0182	-0.0073	-0.0462	0.0165	0.9585
35.612	35.5738	358.8675	21.1578	-121.1693	-2.0382	274.6721	-29.9157	448.2825	-19.3653	182.5595	33.2049	438.7229	-0.0592	0.0182	-0.0073	-0.0462	0.0165	0.9585
35.6255	33.0325	315.8829	18.2257	-106.3686	-0.89025	241.9657	-29.3412	457.9165	-20.5054	186.1407	33.9225	446.8049	-0.0592	0.0182	-0.0073	-0.0462	0.0165	0.9585
35.639	29.742	273.0491	15.4433	-91.6807	-0.10261	209.3565	-28.9292	475.1419	-22.0636	192.6991	35.0764	462.0489	-0.0592	0.0182	-0.0073	-0.0462	0.0165	0.9585
35.6525	25.545	231.0394	12.7966	-77.3299	0.26523	177.3849	-28.9949	501.4413	-24.6488	202.7866	37.3779	485.8535	-0.0592	0.0182	-0.0073	-0.0462	0.0165	0.9585
35.666	20.5199	190.7461	10.3481	-63.6152	0.19046	146.7276	-29.7855	536.5326	-28.6964	216.251	41.3367	517.934	-0.0592	0.0182	-0.0073	-0.0462	0.0165	0.9585
35.6795	15.005	153.1544	8.2133	-50.8672	-0.29116	118.0993	-31.3962	578.775	-34.1182	232.4249	46.9066	556.7014	-0.0592	0.0182	-0.0073	-0.0462	0.0165	0.9585
35.693	9.463	119.1222	6.4653	-39.3712	-1.062	92.125	-33.7518	625.4703	-40.529	250.2492	53.6908	599.5517	-0.0592	0.0182	-0.0073	-0.0462	0.0165	0.9585
35.7065	4.3367	89.2368	5.0929	-29.3241	-1.9481	69.247	-36.6321	673.2863	-47.3231	268.4303	61.0208	643.2876	-0.0592	0.0182	-0.0073	-0.0462	0.0165	0.9585
35.72	-0.0076318	63.8253	4.0157	-20.8319	-2.7588	49.7359	-39.7054	718.7429	-53.9022	285.6266	68.1962	684.566	-0.0592	0.0182	-0.0073	-0.0462	0.0165	0.9585
35.7335	-3.2866	43.0103	3.1273	-13.9248	-3.3162	33.7254	-42.6443	758.7182	-59.7445	300.6411	74.5922	720.4103	-0.0592	0.0182	-0.0073	-0.0462	0.0165	0.9585
35.747	-5.2813	26.6874	2.356	-8.5521	-3.4983	21.1513	-45.1186	790.7681	-64.4892	312.548	79.7367	748.4927	-0.0592	0.0182	-0.0073	-0.0462	0.0165	0.9585
35.7605	-5.9478	14.5195	1.6626	-4.5854	-3.2678	11.7632	-46.8276	813.3621	-67.9483	320.7791	83.3348	767.3594	-0.0592	0.0182	-0.0073	-0.0462	0.0165	0.9585
35.774	-5.5651	6.0573	1.0679	-1.8585	-2.7417	5.2036	-47.5173	825.9649	-70.0551	325.1577	85.2273	776.4939	-0.0592	0.0182	-0.0073	-0.0462	0.0165	0.9585
